<?xml version="1.0" encoding="UTF-8"?>
<svg id="Layer_1" xmlns="http://www.w3.org/2000/svg" version="1.1" viewBox="0 0 24 24">
  <!-- Generator: Adobe Illustrator 30.0.0, SVG Export Plug-In . SVG Version: 2.1.1 Build 123)  -->
  <defs>
    <style>
      .st0 {
        fill: none;
        stroke: #000;
        stroke-linecap: round;
        stroke-linejoin: round;
        stroke-width: 2px;
      }
    </style>
  </defs>
  <path class="st0" d="M3.8,8.6c-.5-2.2.9-4.3,3-4.8.6-.1,1.2-.1,1.7,0,1.2-1.9,3.7-2.4,5.5-1.2.5.3.9.7,1.2,1.2,2.2-.5,4.3.9,4.8,3,.1.6.1,1.2,0,1.8,1.9,1.2,2.4,3.7,1.2,5.5-.3.5-.7.9-1.2,1.2.5,2.2-.9,4.3-3,4.8-.6.1-1.2.1-1.7,0-1.2,1.9-3.7,2.4-5.5,1.2-.5-.3-.9-.7-1.2-1.2-2.2.5-4.3-.9-4.8-3-.1-.6-.1-1.2,0-1.7-1.9-1.2-2.4-3.7-1.2-5.5.3-.5.7-.9,1.2-1.2Z"/>
  <path class="st0" d="M9,12l2,2,4-4"/>
</svg>