<?xml version="1.0" encoding="UTF-8"?>
<svg id="Layer_1" xmlns="http://www.w3.org/2000/svg" version="1.1" viewBox="0 0 300 300">
  <!-- Generator: Adobe Illustrator 30.0.0, SVG Export Plug-In . SVG Version: 2.1.1 Build 123)  -->
  <defs>
    <style>
      .st0 {
        fill-rule: evenodd;
      }

      .st0, .st1 {
        fill: #fff;
      }

      .st2 {
        fill: #fbd4aa;
      }

      .st3 {
        fill: #1b4584;
      }
    </style>
  </defs>
  <g id="Left_Leg">
    <g id="Shoe">
      <path class="st3" d="M242.6,250.2l-.7-.2c-2.5-.7-4.4-2.6-5.7-5.6-.8-1.9-1-3.6-1.1-4.1l-2.2-4.8c-1.3-1.1-1.8-2.1-1.5-3.1.3-1.1,1.7-1.9,4-2.3,1.1-.2,2.2-.3,2.7-.4.9-1.4,1.6-3,1.5-3.6-.4-.4-2.2-1.1-2.8-1.4-.6-.3-.8-.3-.9-.4-.5-.3-.5-.8-.3-1.1.2-.3.5-.7,1.9-.8.9,0,1.7,0,2.4.2l10.8,3-8.1,24.6ZM239.1,223.9c1.2.6,1.9,1,2.1,1.5h0c.1.4.4,2-1.8,5.4l-.2.3h-.4c-3.2.2-5.6,1-5.8,1.7,0,.3.2.8,1.2,1.6h.1c0,.1,2.5,5.5,2.5,5.5h0c0,.1.2,2,1,3.9.9,2.2,2.3,3.7,4,4.4l7.1-21.7-9.2-2.5c-.2,0-.3,0-.5-.1ZM239.7,226.1h0Z"/>
    </g>
    <path class="st2" d="M220.1,151.6s-34.4,6.4-36.8,42.4c-1.2,18.2,31.1,19.7,48.8,24.3l-4.2,15.9s-88.3,10.5-89.9-61.5c-1-46.4,48.6-64,48.6-64l33.4,42.8Z"/>
  </g>
  <g id="Right_Leg">
    <g id="Shoe1" data-name="Shoe">
      <path class="st3" d="M227.6,300l-.6-.5c-2-1.7-3.1-4.3-3.1-7.5,0-2.1.5-3.8.6-4.2v-5.4c-.9-1.6-1-2.7-.3-3.5.8-.9,2.3-1,4.8-.4,1.2.3,2.2.6,2.7.8,1.7-1.1,2.8-2.3,2.9-2.8,0-.6-1.4-3.5-1.7-4-.3-.5-.1-.9.1-1.2.3-.2.8-.4,2.1.1.8.3,1.6.8,2.2,1.3,1.4,1.1,7,7.4,7.3,7.6l.5.5-17.6,19.1ZM226.5,279.6c-.6,0-.9,0-1.1.3-.2.2-.1.8.5,1.9v.2c0,0,.2,6,.2,6h0c0,.1-.6,1.9-.6,4.1,0,2.5.6,4.4,2,5.8l15.7-17c-2.1-2.3-5.7-6.2-6.7-7-.5-.4-1.1-.7-1.6-.9.6,1.2,1.3,2.9,1.3,3.6h0c0,.4-.4,2-3.9,4.2l-.3.2h-.4c-2.1-1-3.9-1.4-5.1-1.4ZM234.3,271.8s0,0,0,0c0,0,0,0,0,0Z"/>
    </g>
    <path class="st2" d="M251.6,145.8s-33.2,24.2-39.4,60.1c-3.2,18.3,3.8,36,19.8,58.2l-12.3,15s-57.7-33.9-52.6-103.1c3.4-46.6,43.4-55.4,43.4-55.4l41.1,25.3Z"/>
  </g>
  <g>
    <path class="st1" d="M122,86.6c-.4,0-.8.1-1.2.1-2.2.2-4.4,0-6.6-.5-3.9-.9-4.6-2.1-4.5-2.5.2-.6,1.4-.2,1.4-.2,0,0-1.7-.4-1.9-1,0-.7,1.3-.7,1.3-.7,0,0-1.6-.2-1.6-.7,0-.5.7-.7,1.6-.8.4,0-1.8,0-1.8-.7,0-1.1,1.9-.3,3.8-.4,1.2,0,2.6,0,3.1,0,.5,0-.5-.4-1.4-.6-.8-.3-1.3-1.4.4-1.2,2.5.5,4.9,1.1,7.2,2"/>
    <path class="st3" d="M118.9,87.6c-1.6,0-3.3-.2-4.8-.6-2.7-.6-4.3-1.5-4.9-2.5-.2-.3-.2-.7-.1-1,0,0,0,0,0,0-.2-.2-.4-.3-.5-.5,0,0,0-.2,0-.3,0-.2,0-.5.1-.7-.3-.2-.4-.5-.4-.9,0-.1,0-.4.2-.6-.2-.2-.3-.5-.3-.8,0-.5.2-.8.4-1,.6-.5,1.4-.4,2.4-.3.5,0,1.1.1,1.7.1.1,0,.3,0,.4,0-.2-.3-.2-.6-.2-.9,0-.3.4-1.1,1.9-.9,0,0,0,0,0,0,2.5.5,5,1.2,7.4,2.1l-.5,1.4c-1.8-.7-3.6-1.2-5.4-1.6.2.2.3.4.3.7,0,.1,0,.7-.8.7-.3,0-.8,0-1.5,0-.5,0-1.1,0-1.7,0-.5,0-.9,0-1.3,0,0,.1,0,.2,0,.4,0,.3-.2.6-.5.7.3.1.5.4.5.7,0,.4-.3.7-.6.7.2,0,.3.1.5.2,0,0,.2,0,.2,0,.4.1.6.5.5.9-.1.4-.4.6-.8.5.5.3,1.5.8,3.3,1.2,2.1.5,4.2.6,6.3.4.4,0,.8,0,1.1-.1l.2,1.5c-.4,0-.8.1-1.2.1-.6,0-1.3,0-1.9,0Z"/>
  </g>
  <g id="Right_hand">
    <g id="Arm">
      <g>
        <path class="st1" d="M121.8,86.5v-6.9c0,0,13.4,0,41.2-12.9,28.3-13.1,30.9-17.7,40-23,1.2-2,2.1-3.2,2.7-3.4,5.7-2.3,11.2-2.1,16.4,1.2,31.4-.7,46.2,51.4,41.9,71.9l-12.5-4.4c4,27.8.6,53.4-18.1,47.9-37.8-11.1-63.3-30.2-60.5-40.8,1.6-5.8,4.4-13.9,7.7-22.6-27.5,8.2-58.7-7-58.7-7Z"/>
        <path class="st3" d="M238.2,158.4c-1.6,0-3.3-.3-5-.8-17.8-5.2-34.1-12.6-45.7-20.7-5.5-3.8-9.6-7.5-12.2-11.1-2.8-3.7-3.8-7.1-3-10,1.4-5.2,3.9-12.5,7.2-21.2-6,1.6-12.5,2.3-19.6,2-6.1-.2-12.5-1.2-19.1-2.8-11.2-2.8-19.1-6.6-19.2-6.6l-.4-.2v-8.1c0,0,.8,0,.8,0,.1,0,13.5-.2,40.8-12.8,20.2-9.3,27.3-14.3,33-18.3,2.2-1.5,4.3-3,6.8-4.5,1.7-2.8,2.5-3.4,3-3.5,6-2.4,11.7-2,16.8,1.1,4.9,0,9.6,1.1,14,3.5,4.1,2.2,7.9,5.5,11.4,9.7,6.4,7.7,11.7,18.7,14.9,30.8,2.8,10.9,3.6,21.7,2.2,28.8l-.2.9-12.2-4.3c3.1,22.7.8,39.2-6.4,45.4-2.2,1.9-4.8,2.9-7.8,2.9ZM181.8,92.3l-.6,1.4c-3.6,9.3-6.2,17.1-7.7,22.5-1.3,4.8,4.2,12.1,14.7,19.4,11.5,8,27.6,15.3,45.3,20.5,4.7,1.4,8.5.8,11.5-1.8,3.6-3.1,5.9-9,6.8-17.5.8-7.7.5-17.3-1.1-27.8l-.2-1.2,12.9,4.6c1.2-6.9.4-17-2.3-27.3-3.1-12-8.3-22.7-14.6-30.3-7.2-8.6-15.4-12.8-24.4-12.6h-.2s-.2-.1-.2-.1c-4.9-3-10-3.4-15.7-1.1,0,0-.7.3-2.3,3.1v.2c0,0-.3,0-.3,0-2.6,1.5-4.5,2.9-6.9,4.5-5.7,4-12.9,9.1-33.2,18.5-24.3,11.2-37.5,12.7-40.7,12.9v5.7c1.7.8,8.9,4,18.4,6.3,10.2,2.5,25.2,4.6,39.3.4l1.5-.4Z"/>
      </g>
    </g>
  </g>
  <g id="Laptop">
    <g>
      <path class="st1" d="M174.8,124.6s-38.1-1.6-49.9-10.9c-9.3-12-9.6-30.8-8.6-43,.3-3.2,1.8-6.2,4.1-8.3,2.4-2.1,5.5-3.3,8.7-3.2,9.1.3,21.9.8,30.9,1.5,2.9.2,5.7,1.5,7.8,3.6,2.1,2.1,3.4,4.9,3.7,7.8,3.2,37.1,3.3,52.5,3.3,52.5Z"/>
      <path class="st3" d="M175.6,125.4h-.8c-1.6,0-38.4-1.7-50.4-11.1h0c0,0,0-.1,0-.1-4.2-5.4-7-12.8-8.3-21.8-.9-6.6-1.1-13.9-.4-21.8.3-3.4,1.9-6.6,4.4-8.8,2.5-2.3,5.8-3.5,9.2-3.4,9.1.3,21.9.8,30.9,1.5,3.1.2,6.1,1.6,8.3,3.8,2.2,2.2,3.6,5.2,3.9,8.3,3.1,36.7,3.3,52.4,3.3,52.6v.8ZM125.5,113.2c10.7,8.3,43.1,10.4,48.6,10.7,0-3.6-.6-19.6-3.3-51.6-.2-2.8-1.5-5.4-3.4-7.4-2-2-4.6-3.2-7.3-3.4-9-.7-21.7-1.2-30.8-1.5-3,0-5.9,1-8.2,3-2.3,2-3.6,4.8-3.9,7.8-.7,7.8-.5,15,.4,21.4,1.2,8.7,3.9,15.8,8,21Z"/>
    </g>
    <path class="st3" d="M200.8,129.8c-39.3,1.8-77.6-12.1-76.5-11.9l.6-3.7s47.2,13.2,76.5,11.9c.7,1.4-.4,2.7-.6,3.7Z"/>
    <g>
      <path class="st2" d="M144.5,101.6c3.3-.7,4.9-6.1,3.6-12.1-1.3-6-5-10.2-8.3-9.5-3.3.7-4.9,6.1-3.6,12.1,1.3,6,5,10.2,8.3,9.5Z"/>
      <path class="st2" d="M143.8,102.4c-.9,0-1.9-.3-2.8-.9-2.5-1.6-4.6-5.1-5.5-9.2-1.4-6.5.5-12.2,4.2-13,1.2-.3,2.5,0,3.7.8,2.5,1.6,4.6,5.1,5.5,9.2,1.4,6.5-.4,12.2-4.2,13h0c-.3,0-.6,0-.9,0ZM140.6,80.7c-.2,0-.4,0-.6,0-2.8.6-4.2,5.7-3.1,11.2.8,3.7,2.6,6.9,4.8,8.3.9.6,1.8.8,2.6.6h0c2.8-.6,4.2-5.7,3.1-11.2-.8-3.7-2.6-6.9-4.8-8.3-.7-.4-1.4-.7-2-.7Z"/>
    </g>
  </g>
  <g>
    <path class="st1" d="M182.3,128.9c1.5-.5,3.4-.9,4.1-1.2.7-.3-.8-.3-2.1-.3s-2.2-1.3,0-1.7c2.2-.4,8.2-.1,8.2-.1,0,0,.7.2,2.7-.8l.5,2-.4-2s30.1-11.4,39.5-20c8.1-7.5,29.4,8.8,29.4,8.8-.4,1.7-.8,3.2-1.5,4.4-13.8,26.7-62.7,17.3-65,16.9-.5.2-1,.4-1.4.6-2.8,1.1-5.9,1.8-8.9,2-5.6.3-7-.9-6.9-1.6,0-.7,1.2-.8,1.6-.8-.6,0-2.3,0-2.8-.5-.4-.8,1.5-1.5,1.5-1.5,0,0-2.2.4-2.4-.2-.1-.7.6-1.2,1.8-1.6.5-.2-2.3.7-2.6-.2-.4-1.5,2.4-1.2,4.9-2Z"/>
    <path class="st3" d="M185.5,138.2c-2.8,0-4.7-.4-5.5-1.3-.3-.3-.5-.7-.5-1.1,0,0,0-.2,0-.3-.4-.1-.8-.3-1-.5,0,0-.1-.1-.1-.2-.1-.3-.2-.7,0-1-.5-.1-.8-.4-.9-.9,0-.3,0-.6,0-.9-.4-.1-.7-.4-.9-.8-.2-.6,0-1,.1-1.2.5-.8,1.6-1,2.9-1.2.7-.1,1.6-.3,2.3-.5.3-.1.7-.2,1-.3-.5-.3-.8-.7-.9-1.2,0-.4,0-1.4,1.9-1.7,2.3-.4,8.1-.2,8.3-.1,0,0,0,0,.1,0,0,0,.7,0,2.2-.8,0,0,.1,0,.2,0,1.8-.7,30.3-11.6,39.1-19.8,8.5-7.8,29.5,8,30.3,8.7.2.2.3.5.3.8-.4,1.8-.9,3.4-1.5,4.6-3.2,6.3-8.6,11.1-16,14.3-5.9,2.6-13.1,4.2-21.4,4.7-13.7.9-25.9-1.3-28.2-1.7-.4.2-.8.4-1.3.5-2.9,1.2-6,1.9-9.1,2-.6,0-1.2,0-1.7,0ZM181.1,135.9c.5.4,2.1.9,6,.7,3-.2,5.9-.8,8.7-1.9,0,0,0,0,0,0,.5-.2.9-.4,1.4-.6.1,0,.3,0,.5,0,2.1.4,50.7,9.8,64.2-16.5.5-1,1-2.3,1.3-3.8-1.3-1-5.9-4.3-11.1-6.8-5.6-2.7-13-5.3-16.9-1.7-8.7,8-34.6,18.2-39.1,19.9l.3,1.3c0,.4-.2.8-.6.9-.4,0-.8-.2-.9-.6l-.2-1c-1.3.6-2,.6-2.3.5-.7,0-5.9-.2-7.9.1-.2,0-.4,0-.5.1,0,0,.2,0,.4,0h.1c2,0,2.7,0,2.9.8,0,.2,0,.7-.6,1-.4.2-1.1.4-2,.6-.7.2-1.5.4-2.1.6h0c-.9.3-1.8.4-2.6.6-.5,0-1.3.2-1.7.4.3,0,.7,0,1.5-.2.8-.2,1,.4,1,.5,0,.2,0,.7-.5,1-.6.2-.9.4-1.1.5.4,0,.9,0,1.3-.1.4,0,.8.2.9.6.1.4-.1.8-.5.9-.3.1-.6.3-.8.4.4,0,1,.2,1.8.2,0,0,0,0,0,0,.4,0,.7.3.8.7,0,.4-.3.8-.7.8-.4,0-.6,0-.8.1ZM192.7,124.8s0,0,0,0c0,0,0,0,0,0ZM192.7,124.8s0,0,0,0c0,0,0,0,0,0Z"/>
  </g>
  <g>
    <path class="st1" d="M236.1,103.7c2.4-3.7-5.6-11.4-4-13.3"/>
    <path class="st3" d="M236.7,104.1l-1.3-.8c1.1-1.7-.8-4.9-2.3-7.5-1.5-2.6-2.7-4.6-1.6-5.8l1.2,1s-.2.2.2,1.2c.3.8.9,1.8,1.6,2.9,1.8,3.1,3.9,6.6,2.2,9.1Z"/>
  </g>
  <g id="Neck">
    <g>
      <path class="st1" d="M208.1,29.3l5.2,8.1s0,3.3-4.6,6.8c-3.4,2.6-5.2,2.6-5.2,2.6l-2.1-4.4-2.1-4.3,7.5-7.5,1.3-1.3Z"/>
      <path class="st3" d="M203,47.6l-2.3-4.9-2.3-4.8,7.8-7.9,2-1.9,5.8,9.1v.2c0,.1,0,3.7-4.9,7.4-3.5,2.7-5.4,2.8-5.6,2.8h-.5ZM200.3,38.2l1.8,3.8,1.9,3.9c.7-.2,2.1-.7,4.3-2.4,2.2-1.7,3.2-3.3,3.7-4.3.4-.8.5-1.4.5-1.7l-4.5-7.1-.6.6-7.1,7.1Z"/>
    </g>
    <path class="st3" d="M206.8,30.6c.1.3.2.6.3.9.7,5.2-3.7,9.4-5.7,10.9l-2-4.3,7.5-7.5Z"/>
  </g>
  <g id="Face">
    <g>
      <path class="st1" d="M185.8,20.8s2.2,12.9,7.4,17.5c5.3,4.6,9.9.2,12.3-3,1.4-1.7,2.3-3.8,2.6-6,1.1-.3,2-1,2.6-1.9.7-.9,1-1.9,1.1-3,.2-4-3-6.2-5.1-5.8-2.1.4-3.3,2.9-3.3,2.9l-.4-3.9s-16.2-10.4-17.2,3.2Z"/>
      <path class="st3" d="M197.9,41c-1.8,0-3.5-.7-5.2-2.2-5.4-4.7-7.6-17.4-7.7-18h0c0,0,0-.2,0-.2.3-3.5,1.5-5.9,3.8-7,5.4-2.7,14.2,3,14.6,3.2l.3.2.2,2.3c.6-.7,1.5-1.3,2.6-1.5,1.2-.2,2.7.2,3.8,1.2,1.5,1.3,2.3,3.2,2.2,5.4,0,1.3-.5,2.5-1.2,3.5-.7.9-1.6,1.6-2.6,2-.4,2.2-1.3,4.2-2.7,5.9-1.6,2.2-4.3,4.8-7.5,5.2-.2,0-.5,0-.7,0ZM186.5,20.7c.2,1.1,2.4,12.8,7.2,17,1.5,1.3,3.1,1.9,4.7,1.8,2.7-.3,5-2.7,6.5-4.6h0c1.3-1.6,2.1-3.6,2.4-5.6v-.5c0,0,.5-.1.5-.1.9-.3,1.7-.8,2.3-1.6.6-.8.9-1.7.9-2.6,0-2.3-1-3.6-1.7-4.2-.8-.7-1.8-1-2.6-.9-1.7.3-2.8,2.5-2.8,2.5l-1.2,2.4-.6-6.2c-1.6-.9-8.7-5-12.8-2.9-1.7.9-2.7,2.8-2.9,5.7Z"/>
    </g>
    <g id="eyebrow">
      <path class="st3" d="M187.9,25.9c0,0-.2,0-.3,0-.1,0-.2,0-.3-.1,0,0,0,0,0-.1,0,0,0-.1,0-.2,0,0,.2-1.3,2-2.2,0,0,.1,0,.2,0,0,0,.1,0,.2,0,0,0,0,0,.1,0,0,0,.1.2.1.3,0,0,0,.1,0,.2,0,0,0,0,0,.1,0,0,0,0-.1,0-1.4.6-1.5,1.4-1.5,1.5,0,0,0,.1,0,.2,0,0,0,.1-.1.2Z"/>
      <path class="st3" d="M195.8,21.1c0,0-.2,0-.3,0-.8-.1-1.7.2-2.3.8-.1.1-.3.2-.4.1-.2,0-.3-.2-.3-.4,0-.1,0-.2.1-.3.8-.8,1.9-1.2,3-1,.2,0,.4.3.3.5,0,0,0,.1,0,.2,0,0,0,0-.1.1Z"/>
    </g>
    <g id="Nose">
      <path class="st3" d="M194.4,32.5s0,0,0,0c0,0,0,0,0-.1,0,0,0,0,0-.1,0,0,0,0,0-.1,0,0,0,0,0,0-1.3-1-.8-3.1-.8-3.2,0,0,0,0,0-.1,0,0,0,0,0,0,0,0,0,0-.1,0,0,0,0,0-.1,0,0,0-.2,0-.3.1,0,0-.1.1-.1.2,0,.1-.6,2.5.9,3.6,0,0,.1,0,.2,0,0,0,.1,0,.2,0Z"/>
    </g>
    <g id="Eyes">
      <path class="st3" d="M190.8,28.5c-.5.2-1,0-1.2-.4-.2-.5,0-1,.4-1.2.5-.2,1,0,1.2.4.2.5,0,1-.4,1.2Z"/>
      <path class="st3" d="M195.9,25.2c-.5.3-1.1,0-1.4-.4-.3-.5,0-1.1.4-1.4.5-.3,1.1,0,1.4.4.3.5,0,1.1-.4,1.4Z"/>
    </g>
    <path class="st3" d="M196.7,34.6c1.1-.4,1.9-1.5,2.1-2.7,0-.5-.7-.6-.8,0-.2,1-1,1.9-2,2.2-.5.1-.3.9.2.8.2,0,.4-.1.5-.2Z"/>
    <g id="Ear">
      <path class="st3" d="M206.1,26.6c0,0,.2-.1.2-.2l1.2-4c.2-.5-.6-.7-.7-.2l-1.2,4c0,.2,0,.4.2.5,0,0,.2,0,.3,0Z"/>
      <path class="st3" d="M208.5,24.5c.4-.2.2-.9-.3-.7l-1.9.6c-.2,0-.3.3-.2.5,0,.2.3.3.5.2l1.9-.6h0Z"/>
    </g>
  </g>
  <g id="Hair">
    <path class="st3" d="M201,8.3c3.5.5,5.5,3,6.9,6.5,1.3,3.4,1.1,4.4,1.1,4.4-.5-.2-1.1-.3-1.7-.3-.6,0-1.1.2-1.7.5-.9.5-1.6,1.3-2,2.3-.1.2.1,1.4,0,1.8,0,.1-.2.3-.3.4-.1,0-.3.1-.4.1-.2,0-.3,0-.4-.2-.1,0-.2-.2-.3-.4-.6-1.2-2-5-6.9-5.8-.5,0-7.3,1.4-7.3,1.4,0,0-1.3,1-1.6,1.9-.2.6-.2,1.2,0,1.8-1.3-.9-1.7-5.2-.6-7.2,1.1-2.1,3.8-4.4,7-5.7,3.1-1.4,5.8-2,8.3-1.6Z"/>
    <path class="st3" d="M207.5,13.1s4.2-.5,3.2-4c-.9-3.5-4.8-1.8-4.8-1.8,0,0,2.4-3-.4-4.6-2.6-1.5-4.5,1.4-4.5,1.4,0,0,.7-3.7-2.4-4.1-2.8-.3-3.7,2.8-3.7,2.8,0,0-.6-3.4-3.7-2.6-3.5.9-2,4.3-2,4.3,0,0-2.3-2.6-5-.2-2.2,2,0,4.5,0,4.5,0,0-3-.9-4.3,2.1-1.3,3.1,2,4.9,4,4.2.1,0,.3-.1.4-.1.1,0,.3,0,.4,0,.1,0,.2.1.3.2,0,.1.2.2.2.4l18.4-1.1,4-1.4Z"/>
  </g>
  <g id="band">
    <path class="st1" d="M207.6,13s.7.7,1.3,3,.1,3.2.1,3.2c0,0-6.7-1.6-13-.8-7.2.9-11,2.3-11,2.3-.7-.8-1.3-1.9-1.5-3-.4-1.7,0-2.6,0-2.6,3.9-1.2,7.9-2,12-2.4,4-.3,8-.2,12,.4Z"/>
    <g id="band1" data-name="band">
      <path class="st3" d="M183.8,18.8c.3.7.7,1.3,1.2,1.8,0,0,3.7-1.4,11-2.3,6.4-.8,13,.8,13,.8.2-.6.2-1.3,0-1.9-4.5-.9-9.2-1.1-13.8-.7-3.9.4-7.7,1.1-11.5,2.3ZM195.1,14.7c4.5-.5,9-.4,13.4.3-.2-.8-.6-1.5-1.1-2.1-4-.5-8-.6-11.9-.3-4.1.4-8.1,1.2-12,2.4-.2.6-.3,1.3-.2,1.9,3.8-1.1,7.8-1.8,11.8-2.3h0Z"/>
    </g>
  </g>
  <g id="Shirt">
    <path class="st3" d="M214.6,70.2l8,.5c.7,0,1.2.6,1.2,1.3v9.9c0,.5-.3,1-.8,1.2l-4.6,1.6c-.3.1-.6,0-.9,0l-3.4-1.6c-.4-.2-.7-.6-.7-1.1v-10.5c0-.7.6-1.3,1.3-1.3Z"/>
    <path class="st3" d="M217.2,38.9c-.4,3-8.8,10.1-15.9,9-2.8-.5-3.1-3.9-2.2-4.3,1-.4,10.7-3.3,14.3-8,1.3-1.6,4,2.1,3.8,3.4Z"/>
  </g>
  <g>
    <path class="st1" d="M174.8,94.9s8.2-25.1-1.9-32.9"/>
    <path class="st3" d="M175.6,95.1l-1.4-.5c0-.2,7.9-24.7-1.6-32l.9-1.2c4.4,3.4,6.1,10.1,5,20-.8,7.2-2.9,13.6-2.9,13.7Z"/>
  </g>
  <g id="Rocket">
    <g>
      <path class="st1" d="M52.7,70.9s-17.5,11.6-17.5,31.7c0,1.7,1.7,2.8,3.2,2.1l14.9-6.7-.6-27.2Z"/>
      <path class="st3" d="M37.5,105.6c-.6,0-1.1-.2-1.6-.5-.9-.6-1.4-1.5-1.4-2.5,0-10.6,4.9-18.8,8.9-23.9,4.4-5.4,8.7-8.3,8.9-8.4l1-.7.6,28.8-15.3,6.9c-.4.2-.8.3-1.2.3ZM52.1,72.2c-1.5,1.2-4.6,3.7-7.6,7.5-3.9,4.8-8.6,12.8-8.6,23,0,.6.3,1.1.7,1.4.5.3,1,.4,1.6.1l14.5-6.5-.5-25.4Z"/>
    </g>
    <g>
      <path class="st1" d="M74.9,98.1l14.9,6.7c1.5.7,3.2-.4,3.2-2.1,0-20.2-17.5-31.7-17.5-31.7l-.6,27.2Z"/>
      <path class="st3" d="M90.7,105.6c-.4,0-.8,0-1.2-.3l-15.3-6.9.6-28.8,1,.7c.2.1,4.5,3,8.9,8.4,4.1,5,8.9,13.2,8.9,23.9,0,1-.5,1.9-1.4,2.5-.5.3-1,.5-1.6.5ZM75.6,97.6l14.5,6.5c.5.2,1.1.2,1.6-.1.5-.3.7-.8.7-1.4,0-10.2-4.7-18.1-8.6-23-3-3.8-6.1-6.3-7.6-7.5l-.5,25.4Z"/>
    </g>
    <g>
      <path class="st1" d="M70.8,105.3h-14c-1.2,0-2.1-.9-2-1.8l1.2-9.1c.1-.8,1-1.5,2-1.5h11.3c1,0,1.9.6,2,1.4l1.4,9.1c.2,1-.8,1.9-2,1.9Z"/>
      <path class="st3" d="M70.8,106h-14c-.8,0-1.6-.3-2.1-.9-.4-.5-.6-1.1-.5-1.7l1.2-9.1c.2-1.2,1.3-2,2.7-2h11.3c1.3,0,2.5.9,2.7,2l1.4,9.1c0,.6,0,1.2-.5,1.7-.5.6-1.3.9-2.2.9ZM58,93.6c-.7,0-1.3.4-1.3.9l-1.2,9.1c0,.3,0,.5.2.6.3.3.7.5,1.1.5h14c.5,0,.9-.2,1.1-.5.1-.1.2-.3.2-.6l-1.4-9.1c0-.5-.7-.9-1.3-.9h-11.3Z"/>
    </g>
    <g>
      <rect class="st2" x="52.7" y="112.5" width="1.3" height="95.5"/>
      <rect class="st2" x="74.2" y="76.9" width="1.3" height="95.5"/>
      <rect class="st2" x="63.1" y="67.3" width="1.3" height="95.5"/>
    </g>
    <g>
      <path class="st1" d="M58.6,3.1c-10.7,11.7-31.3,43.3-4.9,94.7h20.6c26.5-51.4,5.9-83-4.9-94.7-2.9-3.2-8-3.2-10.9,0Z"/>
      <path class="st3" d="M74.8,98.4h-21.4l-.2-.4c-11.6-22.4-15.4-43.5-11.6-62.7,3.1-15.6,10.7-26.4,16.5-32.8C59.7,1,61.8,0,64.1,0c2.3,0,4.4,1,5.9,2.6,5.8,6.3,13.4,17.2,16.5,32.8,3.9,19.2,0,40.2-11.6,62.7l-.2.4ZM54.2,97.1h19.8c11.3-22,15.1-42.7,11.3-61.4-3.1-15.3-10.5-25.9-16.2-32.1-1.3-1.4-3.1-2.2-5-2.2-1.9,0-3.7.8-5,2.2-5.7,6.2-13.1,16.8-16.2,32.1-3.8,18.7,0,39.4,11.3,61.4Z"/>
    </g>
    <g>
      <path class="st0" d="M63.4,63.1c-8.7,27.2-2.3,53.3,0,61,0,.3.4.5.7.5s.6-.2.7-.5c2.3-7.7,8.7-33.8,0-61,0-.3-.4-.5-.7-.5s-.6.2-.7.5Z"/>
      <path class="st3" d="M64.1,125.4c-.6,0-1.2-.4-1.4-1-2.2-7.5-8.7-33.9,0-61.4.2-.6.7-1,1.4-1s1.2.4,1.4,1c8.7,27.5,2.2,53.9,0,61.4-.2.6-.7,1-1.4,1ZM64.1,63.3s0,0,0,0h0c-8.6,27.1-2.2,53.3,0,60.6,0,0,.1,0,.2,0,2.2-7.4,8.6-33.5,0-60.6,0,0,0,0,0,0Z"/>
    </g>
    <g>
      <path class="st0" d="M64.1,45.5c5.2,0,9.5-4.2,9.5-9.5s-4.2-9.5-9.5-9.5-9.5,4.2-9.5,9.5,4.2,9.5,9.5,9.5Z"/>
      <path class="st3" d="M64.1,46.2c-5.6,0-10.1-4.5-10.1-10.1s4.5-10.1,10.1-10.1,10.1,4.5,10.1,10.1-4.5,10.1-10.1,10.1ZM64.1,27.3c-4.8,0-8.8,3.9-8.8,8.8s3.9,8.8,8.8,8.8,8.8-3.9,8.8-8.8-3.9-8.8-8.8-8.8Z"/>
    </g>
    <path class="st3" d="M78,14.6c-2.9-5-6-8.8-8.5-11.5-2.9-3.2-7.9-3.1-10.8,0-2.3,2.5-5.1,6-7.8,10.3,4.7-1.9,15.8-5.7,27.1,1.2Z"/>
  </g>
</svg>