<?xml version="1.0" encoding="UTF-8"?>
<svg id="Layer_1" xmlns="http://www.w3.org/2000/svg" version="1.1" viewBox="0 0 130 46">
  <!-- Generator: Adobe Illustrator 30.0.0, SVG Export Plug-In . SVG Version: 2.1.1 Build 123)  -->
  <defs>
    <style>
      .st0 {
        fill: #fff5eb;
      }

      .st1 {
        fill: #fbd4aa;
      }
    </style>
  </defs>
  <g>
    <path class="st1" d="M52.1,26.2c-.7,0-1.3,0-1.9-.3-.6-.2-1.1-.5-1.5-.9-.4-.4-.7-1-.9-1.7h1.4c.1.5.4.8.7,1.1.3.3.7.4,1.1.5.4,0,.8.1,1.2.1s.8,0,1.1-.2c.4-.1.6-.3.9-.6.2-.3.3-.6.3-1s0-.6-.2-.8c-.1-.2-.3-.4-.5-.5-.2-.1-.4-.2-.7-.3-.4-.1-.8-.2-1.2-.3-.4,0-.8-.2-1.2-.3-.4-.1-.8-.2-1.1-.4-.2,0-.4-.2-.5-.4-.2-.1-.3-.3-.5-.5-.1-.2-.2-.4-.3-.7,0-.2-.1-.5-.1-.8,0-.5,0-.8.2-1.2.1-.3.3-.6.6-.8.2-.2.5-.4.8-.6.3-.1.7-.2,1-.3.4,0,.7,0,1.1,0,.6,0,1.2,0,1.7.3.5.2,1,.5,1.3.9.4.4.5,1,.6,1.7h-1.3c0-.4-.2-.8-.4-1-.2-.2-.5-.4-.9-.5-.3,0-.7-.2-1.1-.2s-.6,0-.8,0c-.3,0-.5.1-.8.3-.2.1-.4.3-.6.5-.1.2-.2.5-.2.8s0,.5.1.7c0,.2.2.4.4.5.2.1.3.2.5.3.5.2,1,.3,1.6.4.6,0,1.1.2,1.6.4.3.1.6.2.8.4.2.2.5.3.6.5.2.2.3.4.4.7,0,.3.1.5.1.9,0,.6-.1,1.1-.3,1.5-.2.4-.5.7-.8,1-.4.3-.8.4-1.2.5-.5.1-.9.2-1.4.2Z"/>
    <path class="st1" d="M60.3,26.1c-.4,0-.7,0-1-.1-.3,0-.6-.2-.9-.4-.3-.2-.5-.4-.6-.7-.2-.3-.2-.6-.2-1s0-.8.2-1.1c.2-.3.4-.6.7-.7.3-.2.6-.3,1-.4.4,0,.8-.1,1.2-.1h2.3c0-.5,0-.8-.2-1.2-.1-.3-.3-.6-.6-.8-.3-.2-.7-.3-1.1-.3s-.5,0-.8,0c-.2,0-.4.2-.6.3-.2.1-.3.3-.4.5h-1.4c0-.4.2-.7.4-.9.2-.3.5-.5.8-.6.3-.2.6-.3,1-.4.3,0,.7-.1,1-.1,1.1,0,2,.3,2.4,1,.5.7.7,1.6.7,2.7v4.3h-1.1v-1c-.3.3-.6.5-.9.7-.3.2-.6.3-1,.3-.3,0-.6,0-.9,0ZM60.4,25c.5,0,.9,0,1.3-.2.4-.2.6-.4.8-.7.2-.3.3-.7.3-1.2v-.4h-1.4c-.3,0-.7,0-1,0-.3,0-.6,0-.9.1-.3,0-.5.2-.6.4-.2.2-.2.4-.2.7s0,.5.2.7c.2.2.4.3.6.4.3,0,.5.1.8.1Z"/>
    <path class="st1" d="M66.1,26v-7.9h1.2v1.2c.2-.3.5-.5.8-.7.3-.2.6-.3.9-.4.3,0,.7-.1,1-.1.8,0,1.4.2,1.8.5.4.3.7.8.9,1.3.2.5.3,1.2.3,1.9v4.4h-1.3v-4c0-.4,0-.7,0-1.1,0-.3-.1-.6-.3-.9s-.3-.5-.6-.6c-.3-.2-.6-.2-1-.2s-1,.1-1.3.4c-.4.3-.6.7-.8,1.2-.2.5-.3,1-.3,1.7v3.6h-1.3Z"/>
    <path class="st1" d="M78.1,26c-.6,0-1.1,0-1.4-.3-.4-.2-.6-.5-.8-.8-.2-.4-.2-.9-.2-1.4v-4.2h-1.3v-1.1h1.3v-2.4h1.3v2.4h2.1v1.1h-2.1v4.1c0,.5,0,.9.3,1.2.2.3.6.4,1.2.4h.6v1.1h-.9Z"/>
    <path class="st1" d="M81.1,17c-.3,0-.5,0-.6-.2-.2-.2-.2-.4-.2-.6s0-.5.2-.6c.2-.2.4-.2.6-.2s.4,0,.6.2c.2.2.3.4.3.6s0,.5-.3.6c-.2.2-.4.2-.6.2ZM80.5,26v-7.9h1.3v7.9h-1.3Z"/>
    <path class="st1" d="M86.3,26.1c-.4,0-.7,0-1-.1-.3,0-.6-.2-.9-.4-.3-.2-.5-.4-.6-.7-.2-.3-.2-.6-.2-1s0-.8.2-1.1c.2-.3.4-.6.7-.7.3-.2.6-.3,1-.4.4,0,.8-.1,1.2-.1h2.3c0-.5,0-.8-.2-1.2-.1-.3-.3-.6-.6-.8-.3-.2-.7-.3-1.1-.3s-.5,0-.8,0c-.2,0-.4.2-.6.3-.2.1-.3.3-.4.5h-1.4c0-.4.2-.7.4-.9.2-.3.5-.5.8-.6.3-.2.6-.3,1-.4.3,0,.7-.1,1-.1,1.1,0,2,.3,2.4,1,.5.7.7,1.6.7,2.7v4.3h-1.1v-1c-.3.3-.6.5-.9.7-.3.2-.6.3-1,.3-.3,0-.6,0-.9,0ZM86.4,25c.5,0,.9,0,1.3-.2.4-.2.6-.4.8-.7.2-.3.3-.7.3-1.2v-.4h-1.4c-.3,0-.7,0-1,0-.3,0-.6,0-.9.1-.3,0-.5.2-.6.4-.2.2-.2.4-.2.7s0,.5.2.7c.2.2.4.3.6.4.3,0,.5.1.8.1Z"/>
    <path class="st1" d="M95.5,29.6c-.5,0-1,0-1.5-.2-.5-.2-.9-.4-1.2-.8-.3-.4-.5-.8-.6-1.3h1.3c0,.3.2.5.5.7.2.2.5.3.8.4.3,0,.6.1.9.1.5,0,1-.1,1.3-.3.3-.2.6-.5.7-.9.2-.4.2-.8.2-1.3v-1.1c-.2.3-.4.5-.7.7-.3.2-.6.3-.9.4-.3,0-.7.1-1,.1-.8,0-1.5-.2-2-.5-.5-.4-.9-.8-1.1-1.4-.2-.6-.4-1.3-.4-2s.1-1.4.4-2.1c.2-.6.6-1.1,1.2-1.5.5-.4,1.2-.5,2-.5s.9,0,1.4.3c.5.2.9.4,1.2.8v-1h1.3v7.8c0,.7-.1,1.4-.4,1.9-.3.5-.7,1-1.2,1.2-.5.3-1.2.4-2,.4ZM95.4,25c.5,0,1-.1,1.3-.4.4-.3.6-.6.8-1.1.2-.5.3-.9.3-1.5s0-1-.3-1.5c-.2-.4-.5-.8-.8-1-.4-.2-.8-.4-1.4-.4s-1,.1-1.4.4c-.3.3-.6.6-.8,1.1-.2.4-.2.9-.2,1.5s0,1.1.2,1.5c.2.4.4.8.8,1,.4.3.8.4,1.4.4Z"/>
    <path class="st1" d="M104.6,26.1c-.8,0-1.5-.2-2.1-.5-.6-.3-1-.8-1.3-1.4-.3-.6-.4-1.3-.4-2.1s.1-1.5.4-2.1c.3-.6.7-1.1,1.3-1.4.6-.4,1.3-.5,2.1-.5s1.5.2,2.1.5c.6.4,1,.8,1.2,1.4.3.6.4,1.3.4,2.1s-.1,1.5-.4,2.1c-.3.6-.7,1.1-1.3,1.4-.6.3-1.3.5-2.1.5ZM104.6,25c.6,0,1.1-.1,1.4-.4.4-.3.6-.6.8-1.1.2-.4.3-.9.3-1.5s0-1-.3-1.5c-.2-.4-.4-.8-.8-1.1-.4-.3-.8-.4-1.4-.4s-1,.1-1.4.4c-.4.3-.6.6-.8,1.1-.2.4-.3.9-.3,1.5s0,1,.3,1.5c.2.4.4.8.8,1.1.4.3.8.4,1.4.4Z"/>
  </g>
  <g>
    <path class="st1" d="M56.7,44.2l3.9-10.6h1.9l3.9,10.6h-1.4l-.8-2.3h-5.3l-.8,2.3h-1.4ZM59.4,40.8h4.4l-2.2-6-2.2,6Z"/>
    <path class="st1" d="M67.6,44.2v-7.9h1.2v1.2c.3-.3.5-.6.8-.8.3-.2.6-.3.9-.4.3,0,.7-.1,1.1-.1h.4v1.2h-.5c-.6,0-1.1.1-1.5.4-.4.3-.7.6-.8,1.1-.2.4-.3.9-.3,1.5v3.9h-1.3Z"/>
    <path class="st1" d="M75.8,44.3c-.4,0-.7,0-1-.1-.3,0-.6-.2-.9-.4-.3-.2-.5-.4-.6-.7-.2-.3-.2-.6-.2-1s0-.8.2-1.1c.2-.3.4-.6.7-.7.3-.2.6-.3,1-.4.4,0,.8-.1,1.2-.1h2.3c0-.5,0-.8-.2-1.2-.1-.3-.3-.6-.6-.8-.3-.2-.7-.3-1.1-.3s-.5,0-.8,0c-.2,0-.4.2-.6.3-.2.1-.3.3-.4.5h-1.4c0-.4.2-.7.4-.9.2-.3.5-.5.8-.6.3-.2.6-.3,1-.4.3,0,.7-.1,1-.1,1.1,0,2,.3,2.4,1,.5.7.7,1.6.7,2.7v4.3h-1.1v-1c-.3.3-.6.5-.9.7-.3.2-.6.3-1,.3-.3,0-.6,0-.9,0ZM75.9,43.2c.5,0,.9,0,1.3-.2.4-.2.6-.4.8-.7.2-.3.3-.7.3-1.2v-.4h-1.4c-.3,0-.7,0-1,0-.3,0-.6,0-.9.1-.3,0-.5.2-.6.4-.2.2-.2.4-.2.7s0,.5.2.7c.2.2.4.3.6.4.3,0,.5.1.8.1Z"/>
    <path class="st1" d="M81.5,44.2v-7.9h1.2v.9c.2-.2.4-.4.6-.6.2-.2.5-.3.7-.3.3,0,.5-.1.8-.1.6,0,1,.1,1.3.4.3.2.6.5.8.9.2-.3.4-.5.6-.7.2-.2.5-.3.8-.4.3,0,.6-.2,1-.2.6,0,1,.1,1.4.4.4.3.6.6.8,1,.2.4.2.9.2,1.4v5.2h-1.3v-4.5c0-.3,0-.5,0-.8,0-.3,0-.5-.2-.8-.1-.2-.2-.4-.4-.6-.2-.1-.5-.2-.8-.2s-.6,0-.8.2c-.2.2-.4.4-.5.6-.1.3-.2.5-.3.8,0,.3,0,.6,0,.9v4.3h-1.3v-4.5c0-.2,0-.5,0-.8,0-.3,0-.5-.2-.8,0-.2-.2-.4-.4-.6-.2-.1-.5-.2-.8-.2s-.9.1-1.1.4c-.3.3-.5.6-.6,1-.1.4-.2.8-.2,1.2v4.3h-1.3Z"/>
    <path class="st1" d="M97.3,44.3c-.8,0-1.5-.2-2.1-.5-.6-.3-1-.8-1.2-1.4-.3-.6-.4-1.3-.4-2.1s.1-1.5.4-2.1c.3-.6.7-1.1,1.3-1.4.6-.4,1.2-.5,2-.5s1.2.1,1.6.4c.4.2.8.5,1.1.9.3.4.5.8.6,1.3.1.5.2.9.2,1.4,0,0,0,.2,0,.3,0,0,0,.2,0,.3h-5.9c0,.5.2.9.3,1.2.2.4.5.7.8.9.4.2.8.3,1.3.3s.5,0,.8,0c.3,0,.5-.2.7-.3.2-.2.4-.4.5-.6h1.3c-.1.5-.3.9-.7,1.3-.3.3-.7.6-1.2.7-.5.2-.9.2-1.4.2ZM94.9,39.6h4.6c0-.5-.1-.8-.3-1.2-.2-.3-.4-.6-.8-.8-.3-.2-.7-.3-1.2-.3s-.9.1-1.2.3c-.3.2-.6.5-.8.8-.2.3-.3.7-.3,1.1Z"/>
    <path class="st1" d="M102.4,44.2v-7.9h1.2v1.2c.2-.3.5-.5.8-.7.3-.2.6-.3.9-.4.3,0,.7-.1,1-.1.8,0,1.4.2,1.8.5.4.3.7.8.9,1.3.2.5.3,1.2.3,1.9v4.4h-1.3v-4c0-.4,0-.7,0-1.1,0-.3-.1-.6-.3-.9s-.3-.5-.6-.6c-.3-.2-.6-.2-1-.2s-1,.1-1.3.4c-.4.3-.6.7-.8,1.2-.2.5-.3,1-.3,1.7v3.6h-1.3Z"/>
    <path class="st1" d="M114.5,44.3c-.8,0-1.4-.2-2-.5-.5-.4-.9-.8-1.1-1.4-.3-.6-.4-1.3-.4-2s.1-1.4.4-2.1c.2-.6.6-1.1,1.2-1.5.5-.4,1.2-.5,2-.5s.6,0,.9.1c.3,0,.6.2.9.3.3.2.5.4.7.6v-3.7h1.3v10.6h-1.2v-1.2c-.2.3-.5.5-.7.7-.3.2-.6.3-.9.4-.3,0-.7.1-1,.1ZM114.6,43.2c.5,0,1-.1,1.3-.4.4-.3.6-.6.8-1.1.2-.5.3-.9.3-1.5s0-1-.3-1.5c-.2-.4-.5-.8-.8-1-.4-.2-.8-.4-1.4-.4s-1,.1-1.4.4c-.3.3-.6.6-.8,1.1-.2.4-.2.9-.2,1.5s0,.8.1,1.1c0,.3.2.7.4.9.2.3.4.5.7.6s.7.2,1.1.2Z"/>
    <path class="st1" d="M120.4,44.2v-7.9h1.3v7.9h-1.3ZM120.4,35.1l1.3-2.1h1.4l-1.5,2.1h-1.2Z"/>
    <path class="st1" d="M126.2,44.3c-.4,0-.7,0-1-.1-.3,0-.6-.2-.9-.4-.3-.2-.5-.4-.6-.7-.2-.3-.2-.6-.2-1s0-.8.2-1.1c.2-.3.4-.6.7-.7.3-.2.6-.3,1-.4.4,0,.8-.1,1.2-.1h2.3c0-.5,0-.8-.2-1.2-.1-.3-.3-.6-.6-.8-.3-.2-.7-.3-1.1-.3s-.5,0-.8,0c-.2,0-.4.2-.6.3-.2.1-.3.3-.4.5h-1.4c0-.4.2-.7.4-.9.2-.3.5-.5.8-.6.3-.2.6-.3,1-.4.3,0,.7-.1,1-.1,1.1,0,2,.3,2.4,1,.5.7.7,1.6.7,2.7v4.3h-1.1v-1c-.3.3-.6.5-.9.7-.3.2-.6.3-1,.3-.3,0-.6,0-.9,0ZM126.3,43.2c.5,0,.9,0,1.3-.2.4-.2.6-.4.8-.7.2-.3.3-.7.3-1.2v-.4h-1.4c-.3,0-.7,0-1,0-.3,0-.6,0-.9.1-.3,0-.5.2-.6.4-.2.2-.2.4-.2.7s0,.5.2.7c.2.2.4.3.6.4.3,0,.5.1.8.1Z"/>
  </g>
  <g>
    <path class="st1" d="M14.3,39c-1.3-.9-2.2-2.2-2.9-3.6l-5.4-11.7L0,36.3l1.7,3.6c.5,1.2,1.3,2.2,2.2,3.1,1,.9,1.7,1.3,1.7,1.3,4.3,2.8,10.3.8,10.3.8,5.4-1.6,8.2-6.5,8.2-6.5-4.3,2.9-7.7,1.8-9.7.3Z"/>
    <path class="st0" d="M16.7,9.1c0,0,0-.2-.1-.3-.6-1.1-.3-2.7-.3-2.7-3.5,0-5.4,2.1-5.8,2.7-.1.1-.2.3-.3.4-1.3,1.5-1.7,3.3-1.7,4.9,0,1.6.4,3.1,1.1,4.5l8.1,16.7c1.3,2.4.8,4,.8,4,5.9.2,7.4-5.3,7.4-5.3,1.1-3.3,0-6,0-6l-9.1-19.1Z"/>
    <path class="st1" d="M33.5,7.3c-.9-1.9-2.2-3.6-3.9-4.8C25.9-.3,22.3.2,21.8.3c0,0-.1,0-.2,0-8,1.1-11.1,6.9-11.1,6.9,8.4-5.3,12.6,2.9,12.6,2.9l15.4,33.4h11.7L33.5,7.3Z"/>
  </g>
</svg>